<svg width="184" height="48" viewBox="0 0 1223 250" fill="none" xmlns="http://www.w3.org/2000/svg">
<path d="M214 175.697C214 173.274 215.011 170.976 216.659 169.2C227.421 157.602 234 142.069 234 125C234 107.931 227.421 92.399 216.659 80.801C215.011 79.0246 214 76.7268 214 74.3034C214 67.1894 221.821 63.1823 226.805 68.2588C241.152 82.8726 250 102.903 250 125L249.993 126.047C249.719 147.73 240.924 167.359 226.804 181.741C221.82 186.817 214 182.81 214 175.697Z" fill="#3498DB"/>
<path d="M36.0002 175.697C36.0002 182.811 28.1791 186.818 23.1951 181.742C8.84847 167.128 0.000243831 147.097 0.000244141 125C0.000252597 102.903 8.84894 82.8736 23.1957 68.2599C28.1795 63.1834 36.0003 67.1905 36.0002 74.3045C36.0002 76.7278 34.9893 79.0256 33.3411 80.8019C22.5803 92.3998 16.0003 107.931 16.0002 125C16.0002 142.069 22.58 157.601 33.3409 169.199C34.9892 170.975 36.0002 173.273 36.0002 175.697Z" fill="#3498DB"/>
<rect x="39" y="78" width="172" height="94" rx="47" stroke="#2D2D2D" stroke-width="16"/>
<path d="M340.26 177.5L303.268 72.7644H322.878L351.848 158.633H345.905L376.212 72.7644H390.325L419.592 158.633H414.392L443.807 72.7644H462.377L425.088 177.5H409.341L381.114 96.9799H384.531L356.008 177.5H340.26ZM501.565 178.986C493.345 178.986 486.263 177.45 480.321 174.38C474.378 171.31 469.773 166.952 466.505 161.307C463.335 155.662 461.751 148.976 461.751 141.251C461.751 133.724 463.286 127.138 466.356 121.492C469.525 115.847 473.834 111.44 479.281 108.271C484.827 105.002 491.116 103.368 498.148 103.368C505.081 103.368 511.023 104.854 515.975 107.825C520.927 110.796 524.741 115.005 527.415 120.453C530.188 125.9 531.574 132.387 531.574 139.914V145.411H476.755V134.714H518.501L516.124 136.943C516.124 130.208 514.638 125.058 511.667 121.492C508.696 117.828 504.437 115.996 498.891 115.996C494.731 115.996 491.166 116.986 488.194 118.967C485.322 120.849 483.094 123.572 481.509 127.138C480.024 130.604 479.281 134.764 479.281 139.617V140.657C479.281 146.104 480.123 150.61 481.806 154.176C483.49 157.741 486.016 160.415 489.383 162.198C492.75 163.981 496.91 164.872 501.862 164.872C505.923 164.872 509.983 164.278 514.044 163.09C518.105 161.802 521.819 159.821 525.186 157.147L530.386 169.626C526.919 172.498 522.562 174.776 517.312 176.46C512.063 178.144 506.814 178.986 501.565 178.986ZM588.175 178.986C582.034 178.986 576.637 177.45 571.982 174.38C567.426 171.31 564.405 167.2 562.92 162.05H564.405V177.5H546.281V72.7644H564.851V119.561H563.068C564.653 114.708 567.723 110.796 572.279 107.825C576.835 104.854 582.133 103.368 588.175 103.368C594.613 103.368 600.208 104.903 604.962 107.973C609.716 111.044 613.43 115.401 616.104 121.047C618.779 126.593 620.116 133.278 620.116 141.103C620.116 148.828 618.779 155.562 616.104 161.307C613.43 166.952 609.667 171.31 604.814 174.38C600.06 177.45 594.514 178.986 588.175 178.986ZM582.975 164.872C588.522 164.872 592.978 162.891 596.346 158.93C599.713 154.869 601.397 148.927 601.397 141.103C601.397 133.179 599.713 127.286 596.346 123.424C592.978 119.462 588.522 117.481 582.975 117.481C577.429 117.481 572.972 119.462 569.605 123.424C566.237 127.286 564.554 133.179 564.554 141.103C564.554 148.927 566.237 154.869 569.605 158.93C572.972 162.891 577.429 164.872 582.975 164.872ZM966.472 177.5V72.7644H1012.23C1023.22 72.7644 1031.74 75.1909 1037.78 80.0439C1043.82 84.7978 1046.84 91.4336 1046.84 99.9511C1046.84 106.29 1045.01 111.638 1041.35 115.996C1037.68 120.353 1032.68 123.275 1026.34 124.761V122.532C1031.2 123.226 1035.35 124.711 1038.82 126.989C1042.29 129.267 1044.91 132.189 1046.7 135.754C1048.58 139.32 1049.52 143.479 1049.52 148.233C1049.52 154.374 1048.08 159.673 1045.21 164.129C1042.44 168.487 1038.38 171.805 1033.03 174.083C1027.68 176.361 1021.29 177.5 1013.86 177.5H966.472ZM984.745 163.09H1011.49C1014.16 163.09 1016.54 162.891 1018.62 162.495C1020.8 162.099 1022.63 161.505 1024.11 160.713C1025.7 159.821 1026.99 158.732 1027.98 157.444C1029.07 156.157 1029.86 154.671 1030.35 152.987C1030.85 151.304 1031.1 149.422 1031.1 147.342C1031.1 145.163 1030.85 143.232 1030.35 141.548C1029.86 139.865 1029.07 138.428 1027.98 137.24C1026.99 135.952 1025.7 134.912 1024.11 134.12C1022.63 133.229 1020.8 132.585 1018.62 132.189C1016.54 131.793 1014.16 131.595 1011.49 131.595H984.745V163.09ZM984.745 117.184H1008.96C1015.5 117.184 1020.35 115.946 1023.52 113.47C1026.79 110.895 1028.42 107.132 1028.42 102.179C1028.42 97.2275 1026.79 93.5134 1023.52 91.0374C1020.35 88.4624 1015.5 87.1748 1008.96 87.1748H984.745V117.184ZM1100.1 178.986C1092.57 178.986 1086.04 177.45 1080.49 174.38C1074.94 171.31 1070.63 166.952 1067.56 161.307C1064.49 155.562 1062.96 148.828 1062.96 141.103C1062.96 133.377 1064.49 126.692 1067.56 121.047C1070.63 115.401 1074.94 111.044 1080.49 107.973C1086.04 104.903 1092.57 103.368 1100.1 103.368C1107.63 103.368 1114.16 104.903 1119.71 107.973C1125.26 111.044 1129.56 115.401 1132.63 121.047C1135.7 126.692 1137.24 133.377 1137.24 141.103C1137.24 148.828 1135.7 155.562 1132.63 161.307C1129.56 166.952 1125.26 171.31 1119.71 174.38C1114.16 177.45 1107.63 178.986 1100.1 178.986ZM1100.1 164.872C1105.65 164.872 1110.1 162.891 1113.47 158.93C1116.84 154.869 1118.52 148.927 1118.52 141.103C1118.52 133.179 1116.84 127.286 1113.47 123.424C1110.1 119.462 1105.65 117.481 1100.1 117.481C1094.55 117.481 1090.1 119.462 1086.73 123.424C1083.36 127.286 1081.68 133.179 1081.68 141.103C1081.68 148.927 1083.36 154.869 1086.73 158.93C1090.1 162.891 1094.55 164.872 1100.1 164.872ZM1140.58 177.5L1174.6 135.606V144.371L1142.51 104.854H1164.2L1185 131.446H1178.46L1199.26 104.854H1220.95L1188.86 144.222V135.903L1222.88 177.5H1201.04L1178.46 148.976H1184.7L1162.27 177.5H1140.58Z" fill="#2D2D2D"/>
<path d="M637.142 177.5V72.7644H656.158V116.441H710.086V72.7644H729.101V177.5H710.086V132.337H656.158V177.5H637.142ZM783.391 178.986C775.864 178.986 769.327 177.45 763.781 174.38C758.235 171.31 753.927 166.952 750.856 161.307C747.786 155.562 746.251 148.828 746.251 141.103C746.251 133.377 747.786 126.692 750.856 121.047C753.927 115.401 758.235 111.044 763.781 107.973C769.327 104.903 775.864 103.368 783.391 103.368C790.918 103.368 797.455 104.903 803.001 107.973C808.548 111.044 812.856 115.401 815.926 121.047C818.996 126.692 820.532 133.377 820.532 141.103C820.532 148.828 818.996 155.562 815.926 161.307C812.856 166.952 808.548 171.31 803.001 174.38C797.455 177.45 790.918 178.986 783.391 178.986ZM783.391 164.872C788.938 164.872 793.394 162.891 796.762 158.93C800.129 154.869 801.813 148.927 801.813 141.103C801.813 133.179 800.129 127.286 796.762 123.424C793.394 119.462 788.938 117.481 783.391 117.481C777.845 117.481 773.388 119.462 770.021 123.424C766.653 127.286 764.97 133.179 764.97 141.103C764.97 148.927 766.653 154.869 770.021 158.93C773.388 162.891 777.845 164.872 783.391 164.872ZM862.451 178.986C858.391 178.986 854.429 178.639 850.566 177.946C846.803 177.252 843.336 176.312 840.167 175.123C836.998 173.835 834.225 172.251 831.848 170.369L836.602 158.187C839.078 159.772 841.752 161.158 844.624 162.347C847.496 163.535 850.467 164.427 853.538 165.021C856.608 165.615 859.629 165.912 862.6 165.912C867.354 165.912 870.87 165.12 873.148 163.535C875.525 161.852 876.713 159.673 876.713 156.999C876.713 154.721 875.921 152.987 874.336 151.799C872.851 150.511 870.573 149.571 867.502 148.976L852.646 146.154C846.506 144.965 841.801 142.737 838.533 139.468C835.364 136.101 833.779 131.793 833.779 126.544C833.779 121.79 835.067 117.679 837.642 114.213C840.316 110.747 843.98 108.072 848.635 106.191C853.29 104.309 858.638 103.368 864.68 103.368C868.146 103.368 871.514 103.715 874.782 104.408C878.05 105.002 881.12 105.943 883.993 107.231C886.964 108.419 889.539 110.004 891.718 111.985L886.667 124.167C884.785 122.582 882.606 121.245 880.13 120.155C877.654 118.967 875.079 118.076 872.405 117.481C869.83 116.788 867.304 116.441 864.828 116.441C859.975 116.441 856.36 117.283 853.983 118.967C851.705 120.651 850.566 122.879 850.566 125.652C850.566 127.732 851.26 129.465 852.646 130.852C854.033 132.238 856.162 133.179 859.034 133.674L873.891 136.497C880.328 137.686 885.181 139.865 888.45 143.034C891.817 146.203 893.501 150.462 893.501 155.81C893.501 160.663 892.213 164.823 889.638 168.289C887.063 171.756 883.448 174.43 878.793 176.312C874.138 178.094 868.691 178.986 862.451 178.986ZM940.951 178.986C931.245 178.986 924.015 176.559 919.261 171.706C914.507 166.853 912.13 159.772 912.13 150.462V118.818H898.165V104.854H912.13V83.1637H930.7V104.854H952.687V118.818H930.7V149.422C930.7 154.176 931.74 157.741 933.82 160.118C935.9 162.495 939.267 163.684 943.922 163.684C945.309 163.684 946.745 163.535 948.23 163.238C949.716 162.842 951.251 162.446 952.836 162.05L955.658 175.717C953.876 176.708 951.598 177.5 948.825 178.094C946.15 178.688 943.526 178.986 940.951 178.986Z" fill="#3498DB"/>
</svg>
