<svg width="25" height="25" viewBox="0 0 250 250" fill="none" xmlns="http://www.w3.org/2000/svg">
<path d="M214 175.697C214 173.274 215.011 170.976 216.659 169.2C227.421 157.602 234 142.07 234 125C234 107.931 227.421 92.399 216.659 80.8011C215.011 79.0246 214 76.7268 214 74.3035C214 67.1895 221.821 63.1823 226.805 68.2588C241.152 82.8726 250 102.903 250 125L249.993 126.047C249.719 147.73 240.924 167.359 226.804 181.741C221.82 186.817 214 182.811 214 175.697Z" fill="#3498DB"/>
<path d="M36.0002 175.697C36.0002 182.811 28.1791 186.818 23.1951 181.742C8.84847 167.128 0.000243831 147.097 0.000244141 125C0.000252597 102.903 8.84894 82.8736 23.1957 68.26C28.1795 63.1834 36.0003 67.1906 36.0002 74.3046C36.0002 76.7278 34.9893 79.0256 33.3411 80.802C22.5803 92.3998 16.0003 107.931 16.0002 125C16.0002 142.069 22.58 157.601 33.3409 169.199C34.9892 170.975 36.0002 173.273 36.0002 175.697Z" fill="#3498DB"/>
<rect x="39" y="78" width="172" height="94" rx="47" stroke="#F9FDFF" stroke-width="16"/>
</svg>
