<svg width="488" height="490" viewBox="0 0 488 490" fill="none" xmlns="http://www.w3.org/2000/svg">
<rect width="488" height="490" fill="#DFF2FF"/>
<path d="M333 295.697C333 293.274 334.011 290.976 335.659 289.2C346.421 277.602 353 262.07 353 245C353 227.931 346.421 212.399 335.659 200.801C334.011 199.025 333 196.727 333 194.303C333 187.189 340.821 183.182 345.805 188.259C360.152 202.873 369 222.903 369 245L368.993 246.047C368.719 267.73 359.924 287.359 345.804 301.741C340.82 306.817 333 302.811 333 295.697Z" fill="#3498DB"/>
<path d="M155 295.697C155 302.811 147.179 306.818 142.195 301.742C127.848 287.128 119 267.097 119 245C119 222.903 127.849 202.874 142.196 188.26C147.179 183.183 155 187.191 155 194.305C155 196.728 153.989 199.026 152.341 200.802C141.58 212.4 135 227.931 135 245C135 262.069 141.58 277.601 152.341 289.199C153.989 290.975 155 293.273 155 295.697Z" fill="#3498DB"/>
<rect x="158" y="198" width="172" height="94" rx="47" stroke="#2D2D2D" stroke-width="16"/>
</svg>
